<?xml version="1.0" encoding="UTF-8"?>
<svg width="49px" height="36px" viewBox="0 0 49 36" version="1.1" xmlns="http://www.w3.org/2000/svg" xmlns:xlink="http://www.w3.org/1999/xlink">
    <!-- Generator: Sketch 52.3 (67297) - http://www.bohemiancoding.com/sketch -->
    <title>quote-icon</title>
    <desc>Created with Sketch.</desc>
    <g id="Page-1" stroke="none" stroke-width="1" fill="none" fill-rule="evenodd">
        <g id="Artboard" transform="translate(-510.000000, -211.000000)" fill="#C7A081" fill-rule="nonzero">
            <g id="icons" transform="translate(113.000000, 71.000000)">
                <g id="black" transform="translate(0.000000, 110.000000)">
                    <g id="big">
                        <path d="M423.5407,53.45 C423.5407,43.168 431.3247,32.412 443.5407,30 L445.5087,34.252 C441.0787,35.922 437.1827,41.736 436.7487,45.744 C441.7307,46.528 445.5407,50.838 445.5407,56.042 C445.5407,62.406 440.3727,66 435.1427,66 C429.1127,66 423.5407,61.39 423.5407,53.45 Z M397.5407,53.45 C397.5407,43.168 405.3247,32.412 417.5407,30 L419.5087,34.252 C415.0787,35.922 411.1827,41.736 410.7487,45.744 C415.7307,46.528 419.5407,50.838 419.5407,56.042 C419.5407,62.406 414.3727,66 409.1427,66 C403.1127,66 397.5407,61.39 397.5407,53.45 Z" id="quote-icon"></path>
                    </g>
                </g>
            </g>
        </g>
    </g>
</svg>