<?xml version="1.0" encoding="UTF-8"?>
<svg width="41px" height="39px" viewBox="0 0 41 39" version="1.1" xmlns="http://www.w3.org/2000/svg" xmlns:xlink="http://www.w3.org/1999/xlink">
    <!-- Generator: Sketch 52.3 (67297) - http://www.bohemiancoding.com/sketch -->
    <title>shave-black-icon</title>
    <desc>Created with Sketch.</desc>
    <g id="Page-1" stroke="none" stroke-width="1" fill="none" fill-rule="evenodd">
        <g id="Artboard" transform="translate(-362.000000, -208.000000)" fill="#000000">
            <g id="icons" transform="translate(113.000000, 71.000000)">
                <g id="black" transform="translate(0.000000, 110.000000)">
                    <g id="big">
                        <path d="M260.383322,32.0162513 L260.381515,31.9128055 C260.372476,31.6351663 260.317039,31.3610942 260.210383,31.1036686 C259.949469,30.4734812 259.403536,29.978249 258.744922,29.7761134 C258.491238,29.6982317 258.2249,29.6649388 257.959767,29.6744511 C257.698853,29.6845579 257.439143,29.7374698 257.196305,29.8319979 C256.925749,29.9372273 256.675681,30.0935852 256.462972,30.2885866 C256.243635,30.4901276 256.064068,30.7332849 255.936925,31.0014118 C255.797127,31.2962919 255.726626,31.6173308 255.719998,31.9425313 C255.655522,41.9535936 255.527776,51.967034 255.7206,61.9763127 C255.729036,62.2355219 255.777845,62.491164 255.871244,62.7337267 C256.099017,63.324676 256.576859,63.8074234 257.169792,64.046419 C257.393347,64.1367855 257.629557,64.1896974 257.870586,64.2093165 C257.930241,64.2134781 257.990499,64.2158562 258.050756,64.2164507 C258.314684,64.2146671 258.576804,64.173051 258.825667,64.0862516 C259.476448,63.8603353 260.0037,63.3460786 260.241115,62.707568 C260.331501,62.4632217 260.376694,62.2063906 260.381515,61.9465869 C260.445387,51.9979488 260.571928,42.0469327 260.384527,32.1000781 C260.38272,32.0721359 260.38272,32.0441936 260.383322,32.0162513 Z M270.257711,36.0750151 L287.732976,36.0750151 L287.732976,32.9407244 C281.807861,32.9419134 275.883348,32.943697 269.958834,32.9442915 L267.932376,32.9442915 C267.999262,33.0049322 268.06434,33.0673564 268.128816,33.1303751 C268.191483,33.1916103 268.252946,33.25344 268.313806,33.3158643 C268.722954,33.7421325 269.094743,34.2010992 269.429774,34.6868192 C269.650919,35.0072635 269.854589,35.3390037 270.045605,35.6784726 C270.118517,35.8092662 270.189621,35.9412489 270.257711,36.0750151 Z M258.050756,35.3996444 C257.951934,35.3984553 257.854317,35.3835924 257.760315,35.3520831 C257.51567,35.2700398 257.315013,35.0845507 257.215588,34.8491222 C257.175215,34.752216 257.153523,34.6505537 257.148099,34.5465133 C257.135445,34.1666173 257.135445,33.7867213 257.148099,33.4068253 C257.15533,33.2766262 257.187869,33.1499942 257.249332,33.0340635 C257.406604,32.7362107 257.730186,32.5471545 258.070641,32.5542887 C258.162835,32.5560723 258.254426,32.5721242 258.341197,32.6012555 C258.44725,32.6369265 258.546072,32.691622 258.631638,32.762964 C258.722627,32.837873 258.797949,32.9306176 258.852783,33.0340635 C258.913643,33.1499942 258.946785,33.2766262 258.954015,33.4068253 C258.966669,33.7867213 258.966669,34.1666173 258.954015,34.5465133 C258.949195,34.6374743 258.93172,34.7266518 258.900386,34.8128567 C258.819039,35.0334223 258.64851,35.2165333 258.432788,35.3158176 C258.343005,35.3574337 258.247798,35.3824034 258.149578,35.3942937 C258.116437,35.3972663 258.083898,35.3990499 258.050756,35.3996444 Z M262.207918,32.9353737 C262.381459,42.6289643 262.374831,52.3279055 262.188636,62.021496 C262.173571,62.4822462 262.086801,62.9364568 261.92049,63.3674812 C261.707781,63.9203815 261.371545,64.425126 260.942511,64.8383149 C260.524927,65.240208 260.021778,65.5541127 259.474037,65.7520866 C259.051632,65.9042829 258.606932,65.9845426 258.157412,65.998811 C258.121257,65.9994055 258.0845,66 258.047743,66 C257.59762,65.9970274 257.15051,65.927469 256.723284,65.7853796 C256.201455,65.6105917 255.716985,65.332358 255.304824,64.9714866 C254.793841,64.5244102 254.398552,63.9530799 254.163548,63.3205144 C254.00266,62.8871119 253.921313,62.4305233 253.912274,61.9691785 C253.850209,52.2880729 253.729091,42.6051836 253.894197,32.925267 C253.79899,32.9193218 253.703783,32.9115931 253.608577,32.9020808 C253.016848,32.8408456 252.429941,32.6993507 251.891239,32.4460867 C251.556208,32.2879453 251.241664,32.0858098 250.962672,31.843247 C250.804797,31.7059137 250.658372,31.5555011 250.525203,31.3949816 C250.430598,31.28024 250.343225,31.1601477 250.26248,31.0358937 C249.82019,30.3551724 249.600853,29.5525752 249.551442,28.749978 C249.53216,28.4295337 249.537583,28.1061167 249.577955,27.7874559 C249.582173,27.7583246 249.582173,27.7589191 249.586994,27.7303823 C249.612905,27.6037503 249.660508,27.4854415 249.73583,27.3790231 C249.803318,27.2850895 249.888884,27.2036408 249.987103,27.141811 C250.074477,27.086521 250.171491,27.0460939 250.272121,27.0229078 C250.3607,27.0026942 250.452291,26.99556 250.542677,27.0026942 C250.87108,27.0264749 251.166342,27.231583 251.300716,27.5276522 C251.359768,27.6578513 251.382666,27.7969682 251.378448,27.9390576 C251.372422,28.0169392 251.361576,28.0942264 251.356153,28.172108 C251.348319,28.3076578 251.346512,28.4432075 251.35314,28.5787573 C251.382064,29.2291583 251.568862,29.9092851 252.035857,30.3896544 C252.115999,30.4722921 252.20277,30.5472012 252.295567,30.6149761 C252.487788,30.755282 252.702907,30.8622949 252.927667,30.9413656 C253.259083,31.0584853 253.609782,31.1173425 253.959877,31.1423122 C253.972532,31.1429067 253.985788,31.1440957 253.998442,31.1446902 C254.049059,30.900344 254.12197,30.6607538 254.218382,30.4288924 C254.494964,29.760656 254.953523,29.1697066 255.534405,28.730359 C255.933309,28.4289391 256.38765,28.1994558 256.869107,28.0585554 C257.286089,27.936085 257.722353,27.8796059 258.157412,27.8909018 C258.623202,27.9021976 259.085979,27.991375 259.521641,28.1548671 C260.004905,28.3361946 260.452016,28.6072941 260.834048,28.9503301 C261.226927,29.3028783 261.550509,29.7297411 261.781295,30.2017872 C261.928323,30.5026125 262.037389,30.8212733 262.10548,31.1482573 C262.298907,31.1500409 262.492333,31.1518244 262.686362,31.1518244 C263.758342,31.1518244 264.830322,31.1530135 265.902303,31.1542025 C266.457274,31.154797 267.011642,31.1553915 267.566011,31.1565806 L267.613614,31.1577696 C267.623858,31.1589586 267.633499,31.1595531 267.643743,31.1607422 C268.415641,31.1607422 269.186936,31.1607422 269.958834,31.1607422 C274.712545,31.1601477 279.466858,31.1589586 284.220569,31.1577696 L288.636235,31.1565806 C288.667569,31.1583641 288.699506,31.1583641 288.73084,31.1613367 C288.793507,31.1678764 288.855573,31.1809557 288.91583,31.1999803 C289.188796,31.2873742 289.407531,31.5037782 289.496109,31.7724996 C289.515994,31.8319512 289.528648,31.8931864 289.535277,31.9550161 C289.538892,31.985931 289.538892,32.0174404 289.5407,32.0483552 L289.5407,36.9667897 C289.538892,36.9977046 289.538892,37.0292139 289.535277,37.0601288 C289.528648,37.1219585 289.515994,37.1831937 289.496109,37.2426453 C289.407531,37.5113668 289.188796,37.7271762 288.91583,37.8151647 C288.855573,37.8341892 288.79411,37.8472686 288.73084,37.8538082 C288.699506,37.8567808 288.668172,37.8567808 288.636838,37.8585644 C282.318241,37.8585644 276.000247,37.8585644 269.682253,37.8585644 C269.652727,37.8573753 269.6232,37.8573753 269.593674,37.8544028 C269.534622,37.8484576 269.476775,37.8371618 269.420133,37.8199208 C269.249604,37.7693869 269.09655,37.6683191 268.983869,37.5327694 C268.933253,37.4721287 268.925419,37.4536987 268.885047,37.3871128 C268.828405,37.2688041 268.776583,37.1481172 268.719339,37.0292139 C268.560862,36.706986 268.386717,36.3930813 268.196304,36.0880944 C268.055904,35.8639617 267.907671,35.6439906 267.750399,35.4311538 C267.631692,35.2700398 267.507561,35.1124929 267.37861,34.9591077 C267.274365,34.8360428 267.166504,34.715356 267.05563,34.5982362 C266.368093,33.8758987 265.517257,33.2629523 264.524817,33.0364415 C264.290416,32.9829351 264.052399,32.9538038 263.811971,32.9431025 C263.684226,32.9425079 263.55648,32.9425079 263.428734,32.9425079 C263.365464,32.9419134 263.299783,32.9431025 263.237115,32.9359683 L263.23109,32.9353737 L262.855083,32.9353737 L262.207918,32.9353737 Z" id="shave-black-icon" transform="translate(269.540700, 46.500000) scale(-1, 1) translate(-269.540700, -46.500000) "></path>
                    </g>
                </g>
            </g>
        </g>
    </g>
</svg>