<?xml version="1.0" encoding="UTF-8"?>
<svg width="111px" height="48px" viewBox="0 0 111 48" version="1.1" xmlns="http://www.w3.org/2000/svg" xmlns:xlink="http://www.w3.org/1999/xlink">
    <!-- Generator: Sketch 52.3 (67297) - http://www.bohemiancoding.com/sketch -->
    <title>medium-black-logo</title>
    <desc>Created with Sketch.</desc>
    <g id="Page-1" stroke="none" stroke-width="1" fill="none" fill-rule="evenodd">
        <g id="Artboard" transform="translate(-503.000000, -305.000000)" fill="#000000">
            <g id="logos" transform="translate(113.000000, 305.000000)">
                <g id="medium-black-logo" transform="translate(390.000000, 0.000000)">
                    <path d="M3,45 L108,45 L108,3 L3,3 L3,45 Z M0,48 L111,48 L111,0 L0,0 L0,48 Z" id="Fill-1"></path>
                    <g id="Group-11" transform="translate(19.764706, 17.426420)">
                        <polygon id="Fill-2" points="2.92314011 7.60927654 7.79304385 7.60927654 7.79304385 4.84894321 2.92314011 4.84894321 2.92314011 2.96819012 8.23325775 2.96819012 8.23325775 0.209066667 0.0800171123 0.209066667 0.0800171123 12.2164864 2.92314011 12.2164864"></polygon>
                        <path d="M17.6096342,12.4130309 C20.1455059,12.4130309 21.7835807,10.7391667 21.7835807,8.14821605 L21.7835807,0.209006173 L18.9248856,0.209006173 L18.9248856,8.08227778 C18.9248856,9.49117901 18.1726289,9.65390741 17.6096342,9.65390741 C16.9849497,9.65390741 16.345292,9.47182099 16.345292,8.11433951 L16.345292,7.32489506 L13.4871957,7.32489506 L13.4871957,8.18027778 C13.4871957,10.7512654 15.104308,12.4130309 17.6096342,12.4130309" id="Fill-3"></path>
                        <path d="M34.1181947,2.77194815 C36.0377668,2.77194815 37.4296813,4.21835556 37.4296813,6.2122321 C37.4296813,8.20610864 36.0377668,9.65372593 34.1181947,9.65372593 C32.1986225,9.65372593 30.806708,8.20610864 30.806708,6.2122321 C30.806708,4.21835556 32.1986225,2.77194815 34.1181947,2.77194815 M34.1181947,12.4128494 C37.6446973,12.4128494 40.3033497,9.74688642 40.3033497,6.2122321 C40.3033497,2.67757778 37.6446973,0.0128246914 34.1181947,0.0128246914 C30.5994781,0.0128246914 27.9480128,2.67757778 27.9480128,6.2122321 C27.9480128,9.74688642 30.5994781,12.4128494 34.1181947,12.4128494" id="Fill-5"></path>
                        <path d="M49.2934759,2.9683716 L51.3382246,2.9683716 C52.3492193,2.9683716 52.8631016,3.39727284 52.8631016,4.2453963 C52.8631016,5.08142099 52.3492193,5.50548272 51.3382246,5.50548272 L49.2934759,5.50548272 L49.2934759,2.9683716 Z M49.2934759,8.08493951 L50.1786952,8.08493951 L53.0427807,12.1065691 L53.1194439,12.2166679 L56.6327701,12.2166679 L53.3650053,7.78368025 C54.9006631,7.24770494 55.7397647,5.99245802 55.7397647,4.21151975 C55.7397647,1.7433716 54.1531979,0.209248148 51.5993583,0.209248148 L46.4503529,0.209248148 L46.4503529,12.2166679 L49.2934759,12.2166679 L49.2934759,8.08493951 Z" id="Fill-7"></path>
                        <path d="M65.0675679,2.9683716 L66.5930439,2.9683716 C68.4940492,2.9683716 69.822477,4.30226049 69.822477,6.21205062 C69.822477,8.12365556 68.4940492,9.45754444 66.5930439,9.45754444 L65.0675679,9.45754444 L65.0675679,2.9683716 Z M72.6656,6.21205062 C72.6656,2.78991481 70.055461,0.209248148 66.5930439,0.209248148 L62.2244449,0.209248148 L62.2244449,12.2166679 L66.5930439,12.2166679 C70.055461,12.2166679 72.6656,9.63600123 72.6656,6.21205062 Z" id="Fill-9"></path>
                    </g>
                </g>
            </g>
        </g>
    </g>
</svg>