<?xml version="1.0" encoding="UTF-8"?>
<svg width="20px" height="18px" viewBox="0 0 20 18" version="1.1" xmlns="http://www.w3.org/2000/svg" xmlns:xlink="http://www.w3.org/1999/xlink">
    <!-- Generator: Sketch 52.3 (67297) - http://www.bohemiancoding.com/sketch -->
    <title>telegram-icon</title>
    <desc>Created with Sketch.</desc>
    <g id="Page-1" stroke="none" stroke-width="1" fill="none" fill-rule="evenodd">
        <g id="Artboard" transform="translate(-501.000000, -104.000000)">
            <g id="icons" transform="translate(113.000000, 71.000000)">
                <g id="white">
                    <g id="telegram-icon" transform="translate(388.000000, 33.000000)">
                        <path d="M16.803,16.958 C16.803,16.958 16.361,18.088 15.147,17.545 L7.862,11.828 L5.213,10.518 L0.754,8.98 C0.754,8.98 0.07,8.732 0.004,8.19 C-0.063,7.647 0.776,7.353 0.776,7.353 L18.503,0.237 C18.503,0.237 19.96,-0.418 19.96,0.667 L16.803,16.957 L16.803,16.958 Z" id="Path" fill="#FFFFFE"></path>
                        <path d="M7.303,16.775 C7.303,16.775 7.09,16.755 6.825,15.895 C6.56,15.037 5.213,10.518 5.213,10.518 L15.92,3.558 C15.92,3.558 16.538,3.174 16.516,3.558 C16.516,3.558 16.626,3.626 16.296,3.943 C15.964,4.259 7.885,11.693 7.885,11.693" id="Path" fill="#E6E6E6"></path>
                        <path d="M10.656,14.02 L7.774,16.71 C7.774,16.71 7.549,16.884 7.303,16.775 L7.854,11.78" id="Path" fill="#CDCDCD"></path>
                    </g>
                </g>
            </g>
        </g>
    </g>
</svg>