<svg xmlns="http://www.w3.org/2000/svg" xmlns:xlink="http://www.w3.org/1999/xlink" width="23" height="13" viewBox="0 0 23 13"><defs><path id="sm3ea" d="M1102.428 6897.877s.41-.045.618-.27c.193-.207.186-.595.186-.595s-.026-1.818.818-2.086c.83-.264 1.9 1.757 3.03 2.534.857.588 1.508.46 1.508.46l3.027-.043s1.583-.098.833-1.343c-.062-.101-.438-.92-2.251-2.604-1.898-1.762-1.644-1.476.642-4.524 1.393-1.856 1.95-2.989 1.776-3.474-.166-.462-1.19-.34-1.19-.34l-3.41.021s-.251-.034-.44.078c-.182.11-.3.365-.3.365s-.54 1.436-1.26 2.658c-1.516 2.577-2.123 2.713-2.371 2.553-.577-.373-.433-1.498-.433-2.298 0-2.497.379-3.538-.737-3.808-.37-.09-.644-.148-1.591-.158-1.216-.013-2.246.004-2.828.29-.388.189-.687.612-.505.636.225.03.735.138 1.006.506.35.475.337 1.542.337 1.542s.2 2.94-.47 3.305c-.46.25-1.09-.26-2.441-2.599-.693-1.197-1.217-2.521-1.217-2.521s-.1-.247-.28-.38c-.22-.16-.524-.211-.524-.211l-3.24.021s-.484.014-.663.225c-.16.188-.013.577-.013.577s2.536 5.932 5.407 8.922c2.633 2.74 5.622 2.561 5.622 2.561h1.355z"/></defs><g><g transform="translate(-1090 -6885)"><use fill="#fff" xlink:href="#sm3ea"/></g></g></svg>