<?xml version="1.0" encoding="UTF-8"?>
<svg width="21px" height="21px" viewBox="0 0 21 21" version="1.1" xmlns="http://www.w3.org/2000/svg" xmlns:xlink="http://www.w3.org/1999/xlink">
    <!-- Generator: Sketch 52.3 (67297) - http://www.bohemiancoding.com/sketch -->
    <title>WA_Logo</title>
    <desc>Created with Sketch.</desc>
    <g id="Page-1" stroke="none" stroke-width="1" fill="none" fill-rule="evenodd">
        <g id="Artboard" transform="translate(-608.000000, -102.000000)" fill="#FFFFFF">
            <g id="icons" transform="translate(113.000000, 71.000000)">
                <g id="white">
                    <path d="M495,51.9249287 L496.478019,46.5518717 C495.56471,44.9756444 495.08504,43.1876509 495.087358,41.368114 C495.089663,35.6511758 499.763492,31 505.505814,31 C508.270115,31.0004362 510.920962,32.0940393 512.874913,34.0401113 C514.828865,35.9861833 515.925775,38.6252254 515.92422,41.3763943 C515.921914,47.0934822 511.247785,51.7451069 505.505964,51.7451069 L505.501654,51.7451069 C503.762206,51.7450657 502.050501,51.311185 500.52295,50.4831116 L495,51.9249287 Z M500.778759,48.6058812 L501.094811,48.7926865 C502.429103,49.5792263 503.951382,49.994147 505.502155,49.9939762 L505.505714,49.9939762 C510.278477,49.9939762 514.163076,46.1277815 514.164981,41.3757458 C514.166311,39.0897182 513.25513,36.8967946 511.631888,35.2793935 C510.008647,33.6619924 507.806312,32.7526028 505.509372,32.7512803 C500.733,32.7512803 496.848351,36.617076 496.846446,41.3688124 C496.844059,42.9913326 497.30306,44.5814037 498.170399,45.9552423 L498.376289,46.2813658 L497.501255,49.4615439 L500.778759,48.6058812 Z M510.754561,43.8422233 C510.689406,43.7341306 510.515993,43.669285 510.255673,43.5395938 C509.995353,43.4099026 508.715506,42.7831948 508.476888,42.696601 C508.23827,42.6100071 508.064706,42.5669097 507.891193,42.8262922 C507.71768,43.0856746 507.218792,43.669285 507.066881,43.8421734 C506.914969,44.0150618 506.763208,44.0367102 506.502938,43.907019 C506.242668,43.7773278 505.403871,43.5036793 504.409554,42.6207815 C503.635661,41.9337672 503.113217,41.0853872 502.961356,40.8259549 C502.809494,40.5665226 502.945167,40.4264062 503.075477,40.2972138 C503.192606,40.1811401 503.336098,39.9945843 503.466007,39.8432945 C503.595916,39.6920048 503.63952,39.5839121 503.726277,39.4110736 C503.813033,39.2382352 503.76968,39.0868456 503.704575,38.9571544 C503.63947,38.8274632 503.118931,37.5521496 502.901964,37.0333848 C502.690661,36.5282375 502.47595,36.5966746 502.31627,36.5886437 C502.164609,36.5811116 501.990895,36.5795154 501.817332,36.5795154 C501.550638,36.5865078 501.299,36.704044 501.123179,36.9037435 C500.884561,37.1631259 500.21206,37.7899834 500.21206,39.0651473 C500.21206,40.3403112 501.144931,41.5725273 501.275241,41.7454656 C501.405551,41.9184038 503.110811,44.5352732 505.722229,45.6575012 C506.20688,45.8653628 506.702252,46.0475348 507.206263,46.2032518 C507.829847,46.4004822 508.397348,46.372848 508.845916,46.3059074 C509.346057,46.2315843 510.386084,45.6791995 510.603,45.0738409 C510.819916,44.4684822 510.819716,43.9500166 510.754611,43.8420238 L510.754561,43.8422233 Z" id="WA_Logo"></path>
                </g>
            </g>
        </g>
    </g>
</svg>