<?xml version="1.0" encoding="UTF-8"?>
<svg width="20px" height="20px" viewBox="0 0 20 20" version="1.1" xmlns="http://www.w3.org/2000/svg" xmlns:xlink="http://www.w3.org/1999/xlink">
    <!-- Generator: Sketch 52.3 (67297) - http://www.bohemiancoding.com/sketch -->
    <title>instagram-small-white-icon</title>
    <desc>Created with Sketch.</desc>
    <g id="Page-1" stroke="none" stroke-width="1" fill="none" fill-rule="evenodd">
        <g id="Artboard" transform="translate(-262.000000, -103.000000)" fill="#FFFFFF" fill-rule="nonzero">
            <g id="icons" transform="translate(113.000000, 71.000000)">
                <g id="white">
                    <path d="M158.6,33.7304 C161.1632,33.7304 161.4672,33.74 162.48,33.7864 C165.0816,33.9048 166.2968,35.1392 166.4152,37.7216 C166.4616,38.7336 166.4704,39.0376 166.4704,41.6008 C166.4704,44.1648 166.4608,44.468 166.4152,45.48 C166.296,48.06 165.084,49.2968 162.48,49.4152 C161.4672,49.4616 161.1648,49.4712 158.6,49.4712 C156.0368,49.4712 155.7328,49.4616 154.7208,49.4152 C152.1128,49.296 150.904,48.056 150.7856,45.4792 C150.7392,44.4672 150.7296,44.164 150.7296,41.6 C150.7296,39.0368 150.74,38.7336 150.7856,37.7208 C150.9048,35.1392 152.1168,33.904 154.7208,33.7856 C155.7336,33.74 156.0368,33.7304 158.6,33.7304 Z M158.6,32 C155.9928,32 155.6664,32.0112 154.6424,32.0576 C151.156,32.2176 149.2184,34.152 149.0584,37.6416 C149.0112,38.6664 149,38.9928 149,41.6 C149,44.2072 149.0112,44.5344 149.0576,45.5584 C149.2176,49.0448 151.152,50.9824 154.6416,51.1424 C155.6664,51.1888 155.9928,51.2 158.6,51.2 C161.2072,51.2 161.5344,51.1888 162.5584,51.1424 C166.0416,50.9824 167.984,49.048 168.1416,45.5584 C168.1888,44.5344 168.2,44.2072 168.2,41.6 C168.2,38.9928 168.1888,38.6664 168.1424,37.6424 C167.9856,34.1592 166.0488,32.2184 162.5592,32.0584 C161.5344,32.0112 161.2072,32 158.6,32 Z M158.6,36.6704 C155.8776,36.6704 153.6704,38.8776 153.6704,41.6 C153.6704,44.3224 155.8776,46.5304 158.6,46.5304 C161.3224,46.5304 163.5296,44.3232 163.5296,41.6 C163.5296,38.8776 161.3224,36.6704 158.6,36.6704 Z M158.6,44.8 C156.8328,44.8 155.4,43.368 155.4,41.6 C155.4,39.8328 156.8328,38.4 158.6,38.4 C160.3672,38.4 161.8,39.8328 161.8,41.6 C161.8,43.368 160.3672,44.8 158.6,44.8 Z M163.7248,35.324 C163.088,35.324 162.572,35.84 162.572,36.476 C162.572,37.112 163.088,37.628 163.7248,37.628 C164.3608,37.628 164.876,37.112 164.876,36.476 C164.876,35.84 164.3608,35.324 163.7248,35.324 Z" id="instagram-small-white-icon"></path>
                </g>
            </g>
        </g>
    </g>
</svg>