<?xml version="1.0" encoding="UTF-8"?>
<svg width="113px" height="111px" viewBox="0 0 113 111" version="1.1" xmlns="http://www.w3.org/2000/svg" xmlns:xlink="http://www.w3.org/1999/xlink">
    <!-- Generator: Sketch 52.3 (67297) - http://www.bohemiancoding.com/sketch -->
    <title>big-white-logo</title>
    <desc>Created with Sketch.</desc>
    <g id="Page-1" stroke="none" stroke-width="1" fill="none" fill-rule="evenodd">
        <g id="Artboard" transform="translate(-144.000000, -345.000000)" fill="#FFFFFF">
            <g id="logos" transform="translate(113.000000, 305.000000)">
                <g id="big-white-logo" transform="translate(31.000000, 40.000000)">
                    <g id="Group-12">
                        <path d="M32.6924635,90.8237127 L35.0484069,89.4832823 C35.4215201,90.1359342 35.8116899,90.4879025 36.7263503,90.4879025 C37.9132057,90.4879025 38.2692623,89.8176873 38.2692623,89.0975924 L38.2692623,81.1393139 L40.9805516,81.1393139 L40.9805516,89.0975924 C40.9805516,91.6779911 39.1505201,93.1020228 36.7092937,93.1020228 C34.8280925,93.1020228 33.4720925,92.3144848 32.6924635,90.8237127" id="Fill-2"></path>
                        <path d="M57.0878132,87.0029943 C57.0878132,84.90945 55.5626686,83.5184373 53.6295868,83.5184373 C51.6972157,83.5184373 50.1720711,84.90945 50.1720711,87.0029943 C50.1720711,89.0972411 51.6972157,90.4882538 53.6295868,90.4882538 C55.5626686,90.4882538 57.0878132,89.0972411 57.0878132,87.0029943 M47.4600711,87.0029943 C47.4600711,83.5514563 50.2232409,80.9043171 53.6295868,80.9043171 C57.0366434,80.9043171 59.7991025,83.5514563 59.7991025,87.0029943 C59.7991025,90.4545323 57.0366434,93.1023741 53.6295868,93.1023741 C50.2232409,93.1023741 47.4600711,90.4545323 47.4600711,87.0029943" id="Fill-4"></path>
                        <path d="M69.0766157,86.668238 L71.109905,86.668238 C71.8561314,86.668238 72.4666157,86.014181 72.4666157,85.1606051 C72.4666157,84.3056241 71.8561314,83.6522696 71.109905,83.6522696 L69.0766157,83.6522696 L69.0766157,86.668238 Z M70.3643893,89.0139911 L69.0766157,89.0139911 L69.0766157,92.8673772 L66.3646157,92.8673772 L66.3646157,81.1393139 L71.109905,81.1393139 C73.3649302,81.1393139 75.1786157,82.9321747 75.1786157,85.1606051 C75.1786157,86.6007949 74.2973579,87.9082063 72.991817,88.5615608 L75.5176157,92.8673772 L72.6023579,92.8673772 L70.3643893,89.0139911 Z" id="Fill-6"></path>
                        <path d="M89.7254824,87.0029943 C89.7254824,84.9930513 88.4377088,83.7193614 86.5721428,83.7193614 L84.5388535,83.7193614 L84.5388535,90.2873297 L86.5721428,90.2873297 C88.4377088,90.2873297 89.7254824,89.0136399 89.7254824,87.0029943 M92.3358535,87.0029943 C92.3358535,90.3210513 89.8441679,92.8677285 86.5721428,92.8677285 L81.8268535,92.8677285 L81.8268535,81.1389627 L86.5721428,81.1389627 C89.8441679,81.1389627 92.3358535,83.6856399 92.3358535,87.0029943" id="Fill-8"></path>
                        <path d="M94.6932182,36.7324291 L81.200734,23.3948658 L65.7048094,38.7128658 L53.8582874,27.0023658 L43.6861553,37.0577013 L19.0876899,12.7409734 L3.95919308,27.6957646 L3.95919308,3.57504304 L108.91274,3.57504304 L108.91274,22.6761759 L94.6932182,36.7324291 Z M90.9365013,45.2302519 L97.1131239,39.1245494 L108.91274,27.4604165 L108.91274,51.7694165 L84.3213818,51.7694165 L90.9357906,45.2302519 L90.9365013,45.2302519 Z M90.8959918,40.4860557 L89.5186711,41.847562 L67.3735138,41.847562 L81.200734,28.1798089 L92.2726019,39.1245494 L90.8959918,40.4860557 Z M108.91274,63.3000684 L70.232627,63.3000684 L51.9536333,45.2302519 L86.0966899,45.2302519 L76.0595893,55.1521063 L108.91274,55.1521063 L108.91274,63.3000684 Z M108.91274,107.323511 L3.95919308,107.323511 L3.95919308,66.6834608 L73.6553189,66.6834608 L108.91274,66.6834608 L108.91274,107.323511 Z M46.106061,39.4498215 L53.8582874,31.7873089 L64.0353943,41.847562 L48.5316522,41.847562 L48.0363,41.3578975 L46.106061,39.4498215 Z M3.95919308,32.4807076 L19.0876899,17.5259165 L41.2662497,39.4498215 L47.113822,45.2302519 L47.1145327,45.2302519 L65.3935264,63.3000684 L3.95919308,63.3000684 L3.95919308,32.4807076 Z M0.535790566,0.191650633 L0.535790566,31.079157 L0.535790566,63.3000684 L0.535790566,66.6834608 L0.535790566,110.706904 L112.335432,110.706904 L112.335432,66.6834608 L112.335432,63.3000684 L112.335432,55.1521063 L112.335432,19.2927835 L112.335432,0.191650633 L0.535790566,0.191650633 Z" id="Fill-10"></path>
                        <polygon id="Fill-1" points="23.2480799 83.7195019 23.2480799 85.9816538 27.6543692 85.9816538 27.6543692 88.5620525 23.2480799 88.5620525 23.2480799 92.8671665 20.5360799 92.8671665 20.5360799 81.1391032 27.7389415 81.1391032 27.7389415 83.7195019"></polygon>
                    </g>
                </g>
            </g>
        </g>
    </g>
</svg>