<?xml version="1.0" encoding="UTF-8"?>
<svg width="46px" height="36px" viewBox="0 0 46 36" version="1.1" xmlns="http://www.w3.org/2000/svg" xmlns:xlink="http://www.w3.org/1999/xlink">
    <!-- Generator: Sketch 52.3 (67297) - http://www.bohemiancoding.com/sketch -->
    <title>ok-icon</title>
    <desc>Created with Sketch.</desc>
    <g id="Page-1" stroke="none" stroke-width="1" fill="none" fill-rule="evenodd">
        <g id="Artboard" transform="translate(-591.000000, -212.000000)" fill="#000000">
            <g id="icons" transform="translate(113.000000, 71.000000)">
                <g id="black" transform="translate(0.000000, 110.000000)">
                    <g id="big">
                        <path d="M523.209696,35.8531469 L496.719056,65.9490227 C495.990451,66.7767863 494.729314,66.8586115 493.899854,66.1319382 L479.056028,53.1275497 C478.2252,52.3996772 478.141738,51.1361007 478.86961,50.3052725 C478.872805,50.3016256 478.876013,50.2979903 478.879235,50.2943667 L479.667379,49.4078332 C480.396784,48.5873715 481.651194,48.5082213 482.477942,49.2304934 L493.434054,58.8020846 C494.262161,59.5255439 495.518987,59.4447811 496.247688,58.6212825 L519.376923,32.4831186 C520.103816,31.6616633 521.356707,31.5789521 522.185279,32.2977214 L523.018986,33.0209445 C523.853361,33.7447479 523.942997,35.0079014 523.219194,35.8422769 C523.216041,35.8459117 523.212875,35.849535 523.209696,35.8531469 Z" id="ok-icon"></path>
                    </g>
                </g>
            </g>
        </g>
    </g>
</svg>