<?xml version="1.0" encoding="UTF-8"?>
<svg width="40px" height="39px" viewBox="0 0 40 39" version="1.1" xmlns="http://www.w3.org/2000/svg" xmlns:xlink="http://www.w3.org/1999/xlink">
    <!-- Generator: Sketch 52.3 (67297) - http://www.bohemiancoding.com/sketch -->
    <title>shave-white-icon</title>
    <desc>Created with Sketch.</desc>
    <g id="Page-1" stroke="none" stroke-width="1" fill="none" fill-rule="evenodd">
        <g id="Artboard" transform="translate(-150.000000, -93.000000)" fill="#FFFFFF">
            <g id="icons" transform="translate(113.000000, 71.000000)">
                <g id="white">
                    <path d="M47.8426225,27.0162513 L47.8408147,26.9128055 C47.8317761,26.6351663 47.7763393,26.3610942 47.6696836,26.1036686 C47.4087688,25.4734812 46.8628362,24.978249 46.2042222,24.7761134 C45.9505383,24.6982317 45.6842004,24.6649388 45.4190676,24.6744511 C45.1581528,24.6845579 44.8984432,24.7374698 44.6556056,24.8319979 C44.3850497,24.9372273 44.1349812,25.0935852 43.9222724,25.2885866 C43.7029353,25.4901276 43.523368,25.7332849 43.3962248,26.0014118 C43.2564275,26.2962919 43.1859263,26.6173308 43.179298,26.9425313 C43.1148225,36.9535936 42.9870767,46.967034 43.1799005,56.9763127 C43.1883366,57.2355219 43.2371451,57.491164 43.3305442,57.7337267 C43.5583174,58.324676 44.036159,58.8074234 44.6290924,59.046419 C44.8526475,59.1367855 45.0888567,59.1896974 45.3298866,59.2093165 C45.3895414,59.2134781 45.4497989,59.2158562 45.5100564,59.2164507 C45.773984,59.2146671 46.0361039,59.173051 46.2849672,59.0862516 C46.9357477,58.8603353 47.4630005,58.3460786 47.7004149,57.707568 C47.790801,57.4632217 47.8359941,57.2063906 47.8408147,56.9465869 C47.9046876,46.9979488 48.0312283,37.0469327 47.8438276,27.1000781 C47.8420199,27.0721359 47.8420199,27.0441936 47.8426225,27.0162513 Z M57.7170117,31.0750151 L75.1922763,31.0750151 L75.1922763,27.9407244 C69.2671607,27.9419134 63.3426477,27.943697 57.4181347,27.9442915 L55.3916765,27.9442915 C55.4585622,28.0049322 55.5236403,28.0673564 55.5881158,28.1303751 C55.6507835,28.1916103 55.7122461,28.25344 55.7731062,28.3158643 C56.1822543,28.7421325 56.5540428,29.2010992 56.8890742,29.6868192 C57.1102191,30.0072635 57.3138893,30.3390037 57.5049054,30.6784726 C57.577817,30.8092662 57.6489208,30.9412489 57.7170117,31.0750151 Z M45.5100564,30.3996444 C45.4112341,30.3984553 45.313617,30.3835924 45.2196154,30.3520831 C44.9749701,30.2700398 44.7743128,30.0845507 44.674888,29.8491222 C44.6345155,29.752216 44.6128228,29.6505537 44.6073997,29.5465133 C44.5947456,29.1666173 44.5947456,28.7867213 44.6073997,28.4068253 C44.6146306,28.2766262 44.6471696,28.1499942 44.7086322,28.0340635 C44.8659042,27.7362107 45.1894867,27.5471545 45.5299413,27.5542887 C45.6221352,27.5560723 45.7137265,27.5721242 45.8004973,27.6012555 C45.9065504,27.6369265 46.0053726,27.691622 46.0909382,27.762964 C46.181927,27.837873 46.2572488,27.9306176 46.3120831,28.0340635 C46.3729431,28.1499942 46.4060847,28.2766262 46.4133156,28.4068253 C46.4259697,28.7867213 46.4259697,29.1666173 46.4133156,29.5465133 C46.408495,29.6374743 46.3910203,29.7266518 46.3596865,29.8128567 C46.2783389,30.0334223 46.1078103,30.2165333 45.8920886,30.3158176 C45.802305,30.3574337 45.7070982,30.3824034 45.6088786,30.3942937 C45.575737,30.3972663 45.543198,30.3990499 45.5100564,30.3996444 Z M49.6672182,27.9353737 C49.8407597,37.6289643 49.8341314,47.3279055 49.6479358,57.021496 C49.6328715,57.4822462 49.5461007,57.9364568 49.3797901,58.3674812 C49.1670813,58.9203815 48.8308447,59.425126 48.4018116,59.8383149 C47.9842275,60.240208 47.4810777,60.5541127 46.9333374,60.7520866 C46.5109327,60.9042829 46.0662327,60.9845426 45.616712,60.998811 C45.5805576,60.9994055 45.5438005,61 45.5070435,61 C45.0569203,60.9970274 44.60981,60.927469 44.1825846,60.7853796 C43.660755,60.6105917 43.1762851,60.332358 42.7641241,59.9714866 C42.2531409,59.5244102 41.857852,58.9530799 41.6228479,58.3205144 C41.4619605,57.8871119 41.3806129,57.4305233 41.3715743,56.9691785 C41.3095091,47.2880729 41.1883916,37.6051836 41.3534971,27.925267 C41.2582903,27.9193218 41.1630835,27.9115931 41.0678767,27.9020808 C40.4761485,27.8408456 39.8892409,27.6993507 39.3505393,27.4460867 C39.0155078,27.2879453 38.7009639,27.0858098 38.4219719,26.843247 C38.2640973,26.7059137 38.1176717,26.5555011 37.9845027,26.3949816 C37.8898985,26.28024 37.8025252,26.1601477 37.7217802,26.0358937 C37.2794905,25.3551724 37.0601534,24.5525752 37.0107423,23.749978 C36.9914599,23.4295337 36.996883,23.1061167 37.0372555,22.7874559 C37.0414736,22.7583246 37.0414736,22.7589191 37.0462942,22.7303823 C37.0722049,22.6037503 37.1198083,22.4854415 37.1951301,22.3790231 C37.2626184,22.2850895 37.348184,22.2036408 37.4464037,22.141811 C37.533777,22.086521 37.6307915,22.0460939 37.7314214,22.0229078 C37.8199999,22.0026942 37.9115912,21.99556 38.0019774,22.0026942 C38.3303805,22.0264749 38.6256421,22.231583 38.7600162,22.5276522 C38.8190685,22.6578513 38.8419663,22.7969682 38.8377483,22.9390576 C38.8317226,23.0169392 38.8208762,23.0942264 38.815453,23.172108 C38.8076196,23.3076578 38.8058119,23.4432075 38.8124402,23.5787573 C38.8413638,24.2291583 39.0281619,24.9092851 39.4951571,25.3896544 C39.5752996,25.4722921 39.6620703,25.5472012 39.7548668,25.6149761 C39.9470881,25.755282 40.1622072,25.8622949 40.3869675,25.9413656 C40.7183835,26.0584853 41.0690819,26.1173425 41.4191777,26.1423122 C41.4318318,26.1429067 41.4450884,26.1440957 41.4577425,26.1446902 C41.5083587,25.900344 41.5812703,25.6607538 41.6776822,25.4288924 C41.9542639,24.760656 42.4128231,24.1697066 42.993705,23.730359 C43.3926094,23.4289391 43.8469506,23.1994558 44.3284076,23.0585554 C44.7453892,22.936085 45.1816532,22.8796059 45.616712,22.8909018 C46.0825022,22.9021976 46.5452794,22.991375 46.9809408,23.1548671 C47.4642056,23.3361946 47.911316,23.6072941 48.2933482,23.9503301 C48.6862268,24.3028783 49.0098094,24.7297411 49.2405954,25.2017872 C49.3876236,25.5026125 49.4966896,25.8212733 49.5647805,26.1482573 C49.758207,26.1500409 49.9516334,26.1518244 50.1456624,26.1518244 C51.2176425,26.1518244 52.2896227,26.1530135 53.3616028,26.1542025 C53.916574,26.154797 54.4709426,26.1553915 55.0253111,26.1565806 L55.0729145,26.1577696 C55.0831583,26.1589586 55.0927995,26.1595531 55.1030433,26.1607422 C55.8749413,26.1607422 56.6462367,26.1607422 57.4181347,26.1607422 C62.1718454,26.1601477 66.9261586,26.1589586 71.6798693,26.1577696 L76.0955356,26.1565806 C76.1268695,26.1583641 76.1588059,26.1583641 76.1901398,26.1613367 C76.2528076,26.1678764 76.3148727,26.1809557 76.3751302,26.1999803 C76.6480965,26.2873742 76.866831,26.5037782 76.9554095,26.7724996 C76.9752944,26.8319512 76.9879485,26.8931864 76.9945768,26.9550161 C76.9981923,26.985931 76.9981923,27.0174404 77,27.0483552 L77,31.9667897 C76.9981923,31.9977046 76.9981923,32.0292139 76.9945768,32.0601288 C76.9879485,32.1219585 76.9752944,32.1831937 76.9554095,32.2426453 C76.866831,32.5113668 76.6480965,32.7271762 76.3751302,32.8151647 C76.3148727,32.8341892 76.2534101,32.8472686 76.1901398,32.8538082 C76.1588059,32.8567808 76.127472,32.8567808 76.0961382,32.8585644 C69.7775414,32.8585644 63.4595472,32.8585644 57.141553,32.8585644 C57.1120268,32.8573753 57.0825007,32.8573753 57.0529745,32.8544028 C56.9939222,32.8484576 56.9360751,32.8371618 56.879433,32.8199208 C56.7089044,32.7693869 56.5558505,32.6683191 56.4431691,32.5327694 C56.3925528,32.4721287 56.3847193,32.4536987 56.3443468,32.3871128 C56.2877048,32.2688041 56.2358834,32.1481172 56.1786388,32.0292139 C56.0201617,31.706986 55.8460177,31.3930813 55.6556041,31.0880944 C55.5152043,30.8639617 55.3669709,30.6439906 55.209699,30.4311538 C55.0909918,30.2700398 54.9668614,30.1124929 54.8379105,29.9591077 C54.7336651,29.8360428 54.6258042,29.715356 54.5149305,29.5982362 C53.8273929,28.8758987 52.9765577,28.2629523 51.9841174,28.0364415 C51.7497159,27.9829351 51.5116989,27.9538038 51.2712717,27.9431025 C51.1435259,27.9425079 51.0157801,27.9425079 50.8880343,27.9425079 C50.8247639,27.9419134 50.7590833,27.9431025 50.6964155,27.9359683 L50.6903898,27.9353737 L50.3143833,27.9353737 L49.6672182,27.9353737 Z" id="shave-white-icon" transform="translate(57.000000, 41.500000) scale(-1, 1) translate(-57.000000, -41.500000) "></path>
                </g>
            </g>
        </g>
    </g>
</svg>