<?xml version="1.0" encoding="UTF-8"?>
<svg width="20px" height="20px" viewBox="0 0 20 20" version="1.1" xmlns="http://www.w3.org/2000/svg" xmlns:xlink="http://www.w3.org/1999/xlink">
    <!-- Generator: Sketch 52.3 (67297) - http://www.bohemiancoding.com/sketch -->
    <title>instagram-small-black-icon</title>
    <desc>Created with Sketch.</desc>
    <g id="Page-1" stroke="none" stroke-width="1" fill="none" fill-rule="evenodd">
        <g id="Artboard" transform="translate(-743.000000, -226.000000)" fill="#000000" fill-rule="nonzero">
            <g id="icons" transform="translate(113.000000, 71.000000)">
                <g id="black" transform="translate(0.000000, 110.000000)">
                    <g id="mini" transform="translate(586.000000, 42.000000)">
                        <path d="M53.6,4.7304 C56.1632,4.7304 56.4672,4.74 57.48,4.7864 C60.0816,4.9048 61.2968,6.1392 61.4152,8.7216 C61.4616,9.7336 61.4704,10.0376 61.4704,12.6008 C61.4704,15.1648 61.4608,15.468 61.4152,16.48 C61.296,19.06 60.084,20.2968 57.48,20.4152 C56.4672,20.4616 56.1648,20.4712 53.6,20.4712 C51.0368,20.4712 50.7328,20.4616 49.7208,20.4152 C47.1128,20.296 45.904,19.056 45.7856,16.4792 C45.7392,15.4672 45.7296,15.164 45.7296,12.6 C45.7296,10.0368 45.74,9.7336 45.7856,8.7208 C45.9048,6.1392 47.1168,4.904 49.7208,4.7856 C50.7336,4.74 51.0368,4.7304 53.6,4.7304 Z M53.6,3 C50.9928,3 50.6664,3.0112 49.6424,3.0576 C46.156,3.2176 44.2184,5.152 44.0584,8.6416 C44.0112,9.6664 44,9.9928 44,12.6 C44,15.2072 44.0112,15.5344 44.0576,16.5584 C44.2176,20.0448 46.152,21.9824 49.6416,22.1424 C50.6664,22.1888 50.9928,22.2 53.6,22.2 C56.2072,22.2 56.5344,22.1888 57.5584,22.1424 C61.0416,21.9824 62.984,20.048 63.1416,16.5584 C63.1888,15.5344 63.2,15.2072 63.2,12.6 C63.2,9.9928 63.1888,9.6664 63.1424,8.6424 C62.9856,5.1592 61.0488,3.2184 57.5592,3.0584 C56.5344,3.0112 56.2072,3 53.6,3 Z M53.6,7.6704 C50.8776,7.6704 48.6704,9.8776 48.6704,12.6 C48.6704,15.3224 50.8776,17.5304 53.6,17.5304 C56.3224,17.5304 58.5296,15.3232 58.5296,12.6 C58.5296,9.8776 56.3224,7.6704 53.6,7.6704 Z M53.6,15.8 C51.8328,15.8 50.4,14.368 50.4,12.6 C50.4,10.8328 51.8328,9.4 53.6,9.4 C55.3672,9.4 56.8,10.8328 56.8,12.6 C56.8,14.368 55.3672,15.8 53.6,15.8 Z M58.7248,6.324 C58.088,6.324 57.572,6.84 57.572,7.476 C57.572,8.112 58.088,8.628 58.7248,8.628 C59.3608,8.628 59.876,8.112 59.876,7.476 C59.876,6.84 59.3608,6.324 58.7248,6.324 Z" id="instagram-small-black-icon"></path>
                    </g>
                </g>
            </g>
        </g>
    </g>
</svg>