<svg xmlns="http://www.w3.org/2000/svg" width="64" height="52" viewBox="0 0 64 52"><g><g><path fill="#c7a081" d="M57.2 9.605c3.825.25 6.7 3.595 6.71 7.419v19.1c0 2.536-.868 5.012-2.446 6.989l-5.86 7.388c-.3.39-.76.61-1.249.61h-1.627a1.602 1.602 0 0 1-1.598-1.598c0-.749.25-1.468.719-2.057l5.86-7.328a6.35 6.35 0 0 0 1.399-3.984v-19.28c0-1.158-.78-2.217-1.917-2.436a2.395 2.395 0 0 0-2.876 2.346s-.02 10.084-.01 13.25a3.191 3.191 0 0 1-.779 2.056l-7.638 9.246c-1.767 2.136-5.222-.33-3.384-2.816l4.942-6.69a2.4 2.4 0 0 0-.44-3.364c-1.078-.829-2.575-.58-3.364.44L36.483 38.2a6.396 6.396 0 0 0-1.328 3.894v7.428c0 .879-.719 1.597-1.597 1.597h-3.195a1.602 1.602 0 0 1-1.598-1.597v-7.438c0-1.408-.47-2.776-1.328-3.894l-7.159-9.306c-.788-1.018-2.286-1.278-3.364-.44a2.4 2.4 0 0 0-.44 3.366l4.943 6.69c1.827 2.485-1.618 4.951-3.385 2.815l-7.638-9.246a3.139 3.139 0 0 1-.779-2.057c-.01-3.155-.03-13.239-.03-13.239a2.399 2.399 0 0 0-2.875-2.346c-1.139.21-1.917 1.278-1.917 2.436v19.28c0 1.458.489 2.865 1.397 3.994l5.871 7.338c.46.58.719 1.308.719 2.057 0 .879-.719 1.597-1.597 1.597H9.555c-.48 0-.948-.23-1.248-.609l-5.86-7.388A11.255 11.255 0 0 1 0 36.143v-19.12C0 13.2 2.876 9.856 6.7 9.606c4.183-.28 7.678 3.046 7.678 7.17l.02 7.587c2.935-1.947 7.208-1.587 9.664 1.598l7.17 9.315c.269.35.488.739.718 1.118.22-.379.45-.768.719-1.118l7.169-9.315c2.426-3.145 6.69-3.575 9.665-1.598l.02-7.588c0-4.123 3.494-7.448 7.678-7.169zm-33.846 1.518l8.596 8.896 8.597-8.896c1.298-1.348 1.617-3.974-.27-5.581-1.398-1.199-3.604-.899-4.922.469L31.95 9.545l-3.415-3.524c-1.318-1.368-3.514-1.668-4.922-.47-1.877 1.608-1.567 4.234-.26 5.572zm-3.364 3.365c-3.007-3.106-3.636-8.996.599-12.61 3.825-3.276 8.89-1.778 11.366.778 2.477-2.556 7.54-4.054 11.376-.779 4.235 3.615 3.606 9.505.6 12.61l-9.858 10.185a2.834 2.834 0 0 1-2.118.888c-.739 0-1.488-.24-2.117-.888z"/></g></g></svg>