<svg xmlns="http://www.w3.org/2000/svg" width="62" height="64" viewBox="0 0 62 64"><g><g><path fill="#c7a081" d="M46.676 53.852c-2.73 0-4.667-2.113-4.667-4.843s1.937-4.844 4.667-4.844c2.818 0 4.756 2.114 4.756 4.844 0 2.554-1.938 4.843-4.756 4.843zM46.764 64C55.483 64 62 57.3 62 49.014c0-8.287-6.517-14.986-15.236-14.986-8.807 0-15.324 6.7-15.324 14.986C31.44 57.3 37.957 64 46.764 64zM15.236 19.825c-2.73 0-4.668-2.114-4.668-4.844 0-2.73 1.938-4.843 4.668-4.843 2.818 0 4.755 2.113 4.755 4.843 0 2.554-1.937 4.844-4.755 4.844zm-2.114 36.848L52.93 12.517l-5.813-3.349L7.31 53.236zm2.202-26.7c8.719 0 15.236-6.7 15.236-14.987C30.56 6.436 24.043 0 15.324 0 6.517 0 0 6.7 0 14.986c0 8.287 6.517 14.986 15.324 14.986z"/></g></g></svg>