<svg xmlns="http://www.w3.org/2000/svg" width="40" height="41" viewBox="0 0 40 41"><g><g clip-path="url(#clip-D4894F14-F3E1-4682-ACF8-6B7B7D9097FF)"><path fill="#c7a081" d="M30.114 34.516c-1.762 0-3.012-1.358-3.012-3.112 0-1.753 1.25-3.11 3.012-3.11 1.818 0 3.068 1.357 3.068 3.11 0 1.64-1.25 3.112-3.068 3.112zM30.17 41c5.625 0 9.83-4.292 9.83-9.6 0-5.31-4.205-9.601-9.83-9.601-5.681 0-9.886 4.292-9.886 9.6 0 5.309 4.205 9.601 9.886 9.601zM9.83 12.717c-1.762 0-3.012-1.358-3.012-3.111 0-1.754 1.25-3.112 3.012-3.112 1.818 0 3.068 1.358 3.068 3.112 0 1.64-1.25 3.11-3.068 3.11zM8.466 36.313L34.148 8.019l-3.75-2.146L4.716 34.11zM9.886 19.2c5.625 0 9.83-4.292 9.83-9.6C19.716 4.123 15.51 0 9.886 0 4.205 0 0 4.292 0 9.6c0 5.31 4.205 9.601 9.886 9.601z"/></g></g></svg>